# xmcd
#
# Track frame offsets: 
#        150
#        13940
#        27165
#        40457
#        53435
#        66385
#        79262
#        91567
#        104425
#        116712
#        131687
#        145690
#        160230
#        175040
#        187227
#        200920
#        214845
#        231017
#        246815
#        261827
#        276817
#        289615
#        304432
#        319375
#        332975
#
# Disc length: 4632 seconds
#
# Revision: 1
# Processed by: cddbd v1.5.2PL0 Copyright (c) Steve Scherf et al.
# Submitted via: ExactAudioCopyFreeDBPlugin 1.0
#
DISCID=7d121619
DTITLE=Walter Davis - Complete Recorded Works Vol. 1 (1933-1935)
DYEAR=1994
DGENRE=Blues
TTITLE0=Red Cross Blues
TTITLE1=L&N Blues
TTITLE2=Moonlight Blues
TTITLE3=Life Boat Blues
TTITLE4=Night Creepin'
TTITLE5=Evil Woman
TTITLE6=You Don't Smell Right
TTITLE7=All Worn Out
TTITLE8=Oil Field Blues
TTITLE9=What's the Use of Worrying
TTITLE10=Stormy Weather Blues -- Part 1
TTITLE11=Stormy Weather Blues -- Part 2
TTITLE12=What You Got on Your Mind
TTITLE13=Poor Grinder Blues
TTITLE14=Red Cross Blues Part 2
TTITLE15=Sloppy Drunk Again
TTITLE16=Travelin' This Lonesome Road Again
TTITLE17=Sad and Lonesome Blues
TTITLE18=Minute Man Blues -- Part 1
TTITLE19=Minute Man Blues -- Part 2
TTITLE20=Sweet 16
TTITLE21=Wonder Where My Baby's Gone
TTITLE22=Lay Around on Your D. B. A
TTITLE23=Dentist Blues
TTITLE24=Root Man Blues
EXTD=
EXTT0=
EXTT1=
EXTT2=
EXTT3=
EXTT4=
EXTT5=
EXTT6=
EXTT7=
EXTT8=
EXTT9=
EXTT10=
EXTT11=
EXTT12=
EXTT13=
EXTT14=
EXTT15=
EXTT16=
EXTT17=
EXTT18=
EXTT19=
EXTT20=
EXTT21=
EXTT22=
EXTT23=
EXTT24=
PLAYORDER=
